<svg xmlns="http://www.w3.org/2000/svg" viewBox="0 0 512 512">
  <rect width="512" height="512" rx="102" fill="#059669"/>
  <g transform="translate(128, 128)">
    <path d="M128 0C57.308 0 0 57.308 0 128s57.308 128 128 128 128-57.308 128-128S198.692 0 128 0zm0 48c44.183 0 80 35.817 80 80s-35.817 80-80 80-80-35.817-80-80 35.817-80 80-80z" fill="white" fill-opacity="0.3"/>
    <path d="M48 96h160v16H48z M48 128h160v16H48z M48 160h120v16H48z" fill="white"/>
    <path d="M192 64l48 48-48 48" stroke="white" stroke-width="16" fill="none" stroke-linecap="round" stroke-linejoin="round"/>
  </g>
</svg>
